<?xml version="1.0" encoding="utf-8"?><!-- Uploaded to: SVG Repo, www.svgrepo.com, Generator: SVG Repo Mixer Tools -->
<svg width="800px" height="800px" viewBox="0 -0.5 25 25" fill="none" xmlns="http://www.w3.org/2000/svg">
<path fill-rule="evenodd" clip-rule="evenodd" d="M16 5L14.409 8.818H17.591L16 5Z" stroke="#000000" stroke-width="1.5" stroke-linecap="round" stroke-linejoin="round"/>
<path d="M17.8077 11.2884C17.967 11.6708 18.4061 11.8516 18.7884 11.6923C19.1708 11.533 19.3516 11.0939 19.1923 10.7116L17.8077 11.2884ZM18.2833 8.52958C18.124 8.14722 17.6849 7.96639 17.3026 8.12567C16.9202 8.28496 16.7394 8.72406 16.8987 9.10642L18.2833 8.52958ZM12.8077 10.7116C12.6484 11.0939 12.8292 11.533 13.2116 11.6923C13.5939 11.8516 14.033 11.6708 14.1923 11.2884L12.8077 10.7116ZM15.1013 9.10642C15.2606 8.72406 15.0798 8.28496 14.6974 8.12567C14.3151 7.96639 13.876 8.14722 13.7167 8.52958L15.1013 9.10642ZM12.7452 15.7194C12.995 15.389 12.9298 14.9186 12.5994 14.6688C12.269 14.419 11.7986 14.4842 11.5488 14.8146L12.7452 15.7194ZM8.72579 18.5476C8.47595 18.878 8.54124 19.3484 8.87162 19.5982C9.202 19.8481 9.67236 19.7828 9.92221 19.4524L8.72579 18.5476ZM8.574 19C8.574 19.4142 8.90979 19.75 9.324 19.75C9.73821 19.75 10.074 19.4142 10.074 19H8.574ZM10.074 5C10.074 4.58579 9.73821 4.25 9.324 4.25C8.90979 4.25 8.574 4.58579 8.574 5H10.074ZM8.72587 19.4525C8.97577 19.7828 9.44614 19.848 9.77648 19.5981C10.1068 19.3482 10.172 18.8779 9.92213 18.5475L8.72587 19.4525ZM7.09813 14.8145C6.84823 14.4842 6.37786 14.419 6.04752 14.6689C5.71718 14.9188 5.65197 15.3891 5.90187 15.7195L7.09813 14.8145ZM13.5 13.25C13.0858 13.25 12.75 13.5858 12.75 14C12.75 14.4142 13.0858 14.75 13.5 14.75V13.25ZM18.5 14L19.0303 14.5303C19.2448 14.3158 19.309 13.9932 19.1929 13.713C19.0768 13.4327 18.8033 13.25 18.5 13.25V14ZM13.5 19L12.9697 18.4697C12.7552 18.6842 12.691 19.0068 12.8071 19.287C12.9232 19.5673 13.1967 19.75 13.5 19.75V19ZM18.5 19.75C18.9142 19.75 19.25 19.4142 19.25 19C19.25 18.5858 18.9142 18.25 18.5 18.25V19.75ZM19.1923 10.7116L18.2833 8.52958L16.8987 9.10642L17.8077 11.2884L19.1923 10.7116ZM14.1923 11.2884L15.1013 9.10642L13.7167 8.52958L12.8077 10.7116L14.1923 11.2884ZM11.5488 14.8146L8.72579 18.5476L9.92221 19.4524L12.7452 15.7194L11.5488 14.8146ZM10.074 19V5H8.574V19H10.074ZM9.92213 18.5475L7.09813 14.8145L5.90187 15.7195L8.72587 19.4525L9.92213 18.5475ZM13.5 14.75H18.5V13.25H13.5V14.75ZM17.9697 13.4697L12.9697 18.4697L14.0303 19.5303L19.0303 14.5303L17.9697 13.4697ZM13.5 19.75H18.5V18.25H13.5V19.75Z" fill="#000000"/>
</svg>