<svg width="800" height="800" viewBox="0 0 800 800" fill="none" xmlns="http://www.w3.org/2000/svg">
<path fill-rule="evenodd" clip-rule="evenodd" d="M512 176L461.088 298.176H562.912L512 176Z" stroke="white" stroke-width="48" stroke-linecap="round" stroke-linejoin="round"/>
<path d="M569.846 377.229C574.944 389.466 588.995 395.251 601.229 390.154C613.465 385.056 619.251 371.005 614.154 358.771L569.846 377.229ZM585.065 288.947C579.968 276.711 565.917 270.924 553.683 276.021C541.446 281.119 535.661 295.17 540.758 307.405L585.065 288.947ZM409.846 358.771C404.749 371.005 410.534 385.056 422.771 390.154C435.005 395.251 449.056 389.466 454.153 377.229L409.846 358.771ZM483.241 307.405C488.339 295.17 482.553 281.119 470.317 276.021C458.083 270.924 444.032 276.711 438.934 288.947L483.241 307.405ZM407.846 519.021C415.84 508.448 413.753 493.395 403.181 485.402C392.608 477.408 377.555 479.494 369.561 490.067L407.846 519.021ZM279.225 609.523C271.23 620.096 273.32 635.149 283.892 643.142C294.464 651.139 309.515 649.05 317.511 638.477L279.225 609.523ZM274.368 624C274.368 637.254 285.113 648 298.368 648C311.623 648 322.368 637.254 322.368 624H274.368ZM322.368 176C322.368 162.745 311.623 152 298.368 152C285.113 152 274.368 162.745 274.368 176H322.368ZM279.228 638.48C287.225 649.05 302.276 651.136 312.847 643.139C323.417 635.142 325.504 620.093 317.508 609.52L279.228 638.48ZM227.14 490.064C219.143 479.494 204.091 477.408 193.521 485.405C182.95 493.402 180.863 508.451 188.86 519.024L227.14 490.064ZM432 440C418.745 440 408 450.746 408 464C408 477.254 418.745 488 432 488V440ZM592 464L608.969 480.97C615.833 474.106 617.888 463.782 614.173 454.816C610.457 445.846 601.705 440 592 440V464ZM432 624L415.03 607.03C408.166 613.894 406.112 624.218 409.827 633.184C413.542 642.154 422.294 648 432 648V624ZM592 648C605.254 648 616 637.254 616 624C616 610.746 605.254 600 592 600V648ZM614.154 358.771L585.065 288.947L540.758 307.405L569.846 377.229L614.154 358.771ZM454.153 377.229L483.241 307.405L438.934 288.947L409.846 358.771L454.153 377.229ZM369.561 490.067L279.225 609.523L317.511 638.477L407.846 519.021L369.561 490.067ZM322.368 624V176H274.368V624H322.368ZM317.508 609.52L227.14 490.064L188.86 519.024L279.228 638.48L317.508 609.52ZM432 488H592V440H432V488ZM575.03 447.03L415.03 607.03L448.969 640.97L608.969 480.97L575.03 447.03ZM432 648H592V600H432V648Z" fill="white"/>
</svg>
